<mxfile host="app.diagrams.net" modified="2021-12-01T06:58:17.446Z" agent="5.0 (X11)" etag="cziIRtsG8ARM-iW6JOZa" version="15.8.8" type="github">
  <diagram id="vGF8bialjJfrGTbfgi7j" name="Page-1">
    <mxGraphModel dx="1831" dy="527" grid="1" gridSize="10" guides="1" tooltips="1" connect="1" arrows="1" fold="1" page="1" pageScale="1" pageWidth="850" pageHeight="1100" math="0" shadow="0">
      <root>
        <mxCell id="0" />
        <mxCell id="1" parent="0" />
        <mxCell id="k1hCSAN1nnJ3lTa43a7m-1" value="" style="ellipse;whiteSpace=wrap;html=1;aspect=fixed;" vertex="1" parent="1">
          <mxGeometry x="-20" y="1080" width="40" height="40" as="geometry" />
        </mxCell>
        <object label="" id="k1hCSAN1nnJ3lTa43a7m-6">
          <mxCell style="edgeStyle=orthogonalEdgeStyle;rounded=0;orthogonalLoop=1;jettySize=auto;html=1;endArrow=none;endFill=0;" edge="1" parent="1" source="k1hCSAN1nnJ3lTa43a7m-2" target="k1hCSAN1nnJ3lTa43a7m-3">
            <mxGeometry relative="1" as="geometry" />
          </mxCell>
        </object>
        <mxCell id="k1hCSAN1nnJ3lTa43a7m-2" value="Operator" style="rounded=0;whiteSpace=wrap;html=1;" vertex="1" parent="1">
          <mxGeometry x="80" y="40" width="120" height="60" as="geometry" />
        </mxCell>
        <mxCell id="k1hCSAN1nnJ3lTa43a7m-7" value="" style="edgeStyle=orthogonalEdgeStyle;rounded=0;orthogonalLoop=1;jettySize=auto;html=1;endArrow=none;endFill=0;" edge="1" parent="1" source="k1hCSAN1nnJ3lTa43a7m-3" target="k1hCSAN1nnJ3lTa43a7m-4">
          <mxGeometry relative="1" as="geometry" />
        </mxCell>
        <mxCell id="k1hCSAN1nnJ3lTa43a7m-3" value="Report" style="rounded=0;whiteSpace=wrap;html=1;" vertex="1" parent="1">
          <mxGeometry x="280" y="40" width="120" height="60" as="geometry" />
        </mxCell>
        <mxCell id="k1hCSAN1nnJ3lTa43a7m-8" value="" style="edgeStyle=orthogonalEdgeStyle;rounded=0;orthogonalLoop=1;jettySize=auto;html=1;endArrow=none;endFill=0;" edge="1" parent="1" source="k1hCSAN1nnJ3lTa43a7m-4" target="k1hCSAN1nnJ3lTa43a7m-5">
          <mxGeometry relative="1" as="geometry" />
        </mxCell>
        <mxCell id="k1hCSAN1nnJ3lTa43a7m-4" value="Data from sensors" style="rounded=0;whiteSpace=wrap;html=1;" vertex="1" parent="1">
          <mxGeometry x="480" y="40" width="120" height="60" as="geometry" />
        </mxCell>
        <mxCell id="k1hCSAN1nnJ3lTa43a7m-5" value="Report with last values" style="rounded=0;whiteSpace=wrap;html=1;" vertex="1" parent="1">
          <mxGeometry x="680" y="40" width="120" height="60" as="geometry" />
        </mxCell>
        <object label="" id="k1hCSAN1nnJ3lTa43a7m-12">
          <mxCell style="edgeStyle=orthogonalEdgeStyle;rounded=0;orthogonalLoop=1;jettySize=auto;html=1;endArrow=none;endFill=0;startArrow=none;" edge="1" source="k1hCSAN1nnJ3lTa43a7m-19" target="k1hCSAN1nnJ3lTa43a7m-15" parent="1">
            <mxGeometry relative="1" as="geometry" />
          </mxCell>
        </object>
        <mxCell id="k1hCSAN1nnJ3lTa43a7m-13" value="Operator" style="rounded=0;whiteSpace=wrap;html=1;" vertex="1" parent="1">
          <mxGeometry x="40" y="1120" width="80" height="60" as="geometry" />
        </mxCell>
        <mxCell id="k1hCSAN1nnJ3lTa43a7m-14" value="" style="edgeStyle=orthogonalEdgeStyle;rounded=0;orthogonalLoop=1;jettySize=auto;html=1;endArrow=none;endFill=0;" edge="1" source="k1hCSAN1nnJ3lTa43a7m-15" target="k1hCSAN1nnJ3lTa43a7m-17" parent="1">
          <mxGeometry width="40" height="1190" relative="1" as="geometry" />
        </mxCell>
        <mxCell id="k1hCSAN1nnJ3lTa43a7m-23" value="Pull" style="rhombus;whiteSpace=wrap;html=1;" vertex="1" parent="k1hCSAN1nnJ3lTa43a7m-14">
          <mxGeometry x="400" y="1110" width="80" height="80" as="geometry" />
        </mxCell>
        <mxCell id="k1hCSAN1nnJ3lTa43a7m-15" value="Report" style="rounded=0;whiteSpace=wrap;html=1;" vertex="1" parent="1">
          <mxGeometry x="280" y="1120" width="80" height="60" as="geometry" />
        </mxCell>
        <mxCell id="k1hCSAN1nnJ3lTa43a7m-16" value="" style="edgeStyle=orthogonalEdgeStyle;rounded=0;orthogonalLoop=1;jettySize=auto;html=1;endArrow=none;endFill=0;startArrow=none;" edge="1" source="k1hCSAN1nnJ3lTa43a7m-21" target="k1hCSAN1nnJ3lTa43a7m-18" parent="1">
          <mxGeometry relative="1" as="geometry" />
        </mxCell>
        <mxCell id="k1hCSAN1nnJ3lTa43a7m-17" value="Data from sensors" style="rounded=0;whiteSpace=wrap;html=1;" vertex="1" parent="1">
          <mxGeometry x="520" y="1120" width="80" height="60" as="geometry" />
        </mxCell>
        <mxCell id="k1hCSAN1nnJ3lTa43a7m-18" value="Report with last values" style="rounded=0;whiteSpace=wrap;html=1;" vertex="1" parent="1">
          <mxGeometry x="760" y="1120" width="80" height="60" as="geometry" />
        </mxCell>
        <mxCell id="k1hCSAN1nnJ3lTa43a7m-19" value="Process" style="rhombus;whiteSpace=wrap;html=1;" vertex="1" parent="1">
          <mxGeometry x="160" y="1110" width="80" height="80" as="geometry" />
        </mxCell>
        <mxCell id="k1hCSAN1nnJ3lTa43a7m-20" value="" style="edgeStyle=orthogonalEdgeStyle;rounded=0;orthogonalLoop=1;jettySize=auto;html=1;endArrow=none;endFill=0;" edge="1" parent="1" source="k1hCSAN1nnJ3lTa43a7m-13" target="k1hCSAN1nnJ3lTa43a7m-19">
          <mxGeometry relative="1" as="geometry">
            <mxPoint x="-680" y="1150" as="sourcePoint" />
            <mxPoint x="-320" y="1150" as="targetPoint" />
          </mxGeometry>
        </mxCell>
        <mxCell id="k1hCSAN1nnJ3lTa43a7m-21" value="&lt;div&gt;Generate&lt;/div&gt;" style="rhombus;whiteSpace=wrap;html=1;" vertex="1" parent="1">
          <mxGeometry x="640" y="1110" width="80" height="80" as="geometry" />
        </mxCell>
        <mxCell id="k1hCSAN1nnJ3lTa43a7m-22" value="" style="edgeStyle=orthogonalEdgeStyle;rounded=0;orthogonalLoop=1;jettySize=auto;html=1;endArrow=none;endFill=0;" edge="1" parent="1" source="k1hCSAN1nnJ3lTa43a7m-17" target="k1hCSAN1nnJ3lTa43a7m-21">
          <mxGeometry relative="1" as="geometry">
            <mxPoint x="280" y="1150" as="sourcePoint" />
            <mxPoint x="680" y="1150" as="targetPoint" />
          </mxGeometry>
        </mxCell>
        <mxCell id="k1hCSAN1nnJ3lTa43a7m-28" value="" style="edgeStyle=orthogonalEdgeStyle;rounded=0;orthogonalLoop=1;jettySize=auto;html=1;endArrow=none;endFill=0;" edge="1" parent="1" source="k1hCSAN1nnJ3lTa43a7m-26" target="k1hCSAN1nnJ3lTa43a7m-13">
          <mxGeometry relative="1" as="geometry" />
        </mxCell>
        <mxCell id="k1hCSAN1nnJ3lTa43a7m-26" value="Universal_id" style="ellipse;whiteSpace=wrap;html=1;dashed=1;strokeWidth=1;perimeterSpacing=1;" vertex="1" parent="1">
          <mxGeometry x="-10" y="1240" width="100" height="50" as="geometry" />
        </mxCell>
        <mxCell id="k1hCSAN1nnJ3lTa43a7m-29" value="Code report" style="ellipse;whiteSpace=wrap;html=1;strokeWidth=1;" vertex="1" parent="1">
          <mxGeometry x="10" y="1310" width="90" height="50" as="geometry" />
        </mxCell>
      </root>
    </mxGraphModel>
  </diagram>
</mxfile>
